<?xml version="1.0" encoding="utf-8"?>
<!-- Generator: Adobe Illustrator 23.0.3, SVG Export Plug-In . SVG Version: 6.00 Build 0)  -->
<svg version="1.1" id="Layer_1" xmlns="http://www.w3.org/2000/svg" xmlns:xlink="http://www.w3.org/1999/xlink" x="0px" y="0px"
	 viewBox="0 0 171 45" style="enable-background:new 0 0 171 45;" xml:space="preserve">
<style type="text/css">
	.st0{fill:#F0F0F0;}
	.st1{fill:#F26630;}
</style>
<g>
	<path class="st0" d="M37.9,11.53c-0.54,0.59-1.39,0.88-2.55,0.88c-0.34,0-0.68-0.04-1.03-0.11c-0.35-0.08-0.67-0.2-0.95-0.36
		c-0.28-0.17-0.52-0.39-0.71-0.66c-0.19-0.27-0.29-0.6-0.31-0.99h1.19c0.01,0.21,0.08,0.4,0.2,0.55c0.12,0.15,0.28,0.27,0.46,0.36
		c0.18,0.09,0.38,0.16,0.6,0.2c0.21,0.04,0.42,0.06,0.62,0.06c0.39,0,0.72-0.07,0.99-0.2c0.27-0.13,0.49-0.32,0.67-0.56
		c0.18-0.24,0.31-0.53,0.39-0.86c0.08-0.34,0.12-0.7,0.12-1.11V8.25h-0.03c-0.21,0.45-0.52,0.78-0.93,0.99
		c-0.42,0.21-0.86,0.31-1.32,0.31c-0.54,0-1.01-0.1-1.41-0.29c-0.4-0.2-0.74-0.46-1.01-0.79c-0.27-0.33-0.47-0.72-0.61-1.16
		c-0.13-0.44-0.2-0.91-0.2-1.41c0-0.43,0.06-0.87,0.17-1.32c0.11-0.45,0.3-0.86,0.56-1.23c0.26-0.37,0.61-0.67,1.03-0.91
		c0.43-0.24,0.96-0.36,1.58-0.36c0.46,0,0.88,0.1,1.26,0.3c0.38,0.2,0.68,0.5,0.9,0.9h0.01V2.24h1.12v6.62
		C38.72,10.05,38.45,10.94,37.9,11.53 M36.38,8.27c0.28-0.16,0.5-0.38,0.67-0.65c0.17-0.27,0.29-0.57,0.37-0.9
		c0.08-0.34,0.12-0.67,0.12-1.01c0-0.32-0.04-0.63-0.11-0.94c-0.07-0.31-0.19-0.58-0.36-0.83C36.91,3.7,36.7,3.5,36.43,3.35
		c-0.26-0.15-0.58-0.22-0.95-0.22c-0.38,0-0.71,0.07-0.98,0.22s-0.49,0.34-0.67,0.58c-0.17,0.24-0.3,0.52-0.38,0.84
		c-0.08,0.32-0.12,0.65-0.12,0.99c0,0.33,0.03,0.65,0.1,0.98c0.06,0.33,0.18,0.62,0.34,0.89c0.16,0.27,0.37,0.48,0.63,0.65
		c0.26,0.16,0.59,0.24,0.98,0.24C35.78,8.52,36.11,8.44,36.38,8.27 M46.08,8.53c-0.14,0.04-0.26,0.06-0.36,0.06
		c-0.19,0-0.3-0.06-0.33-0.2c-0.03-0.13-0.05-0.33-0.05-0.62V4.06c0-0.42-0.08-0.76-0.24-1.02c-0.16-0.26-0.37-0.46-0.63-0.61
		c-0.26-0.14-0.55-0.24-0.88-0.29c-0.32-0.05-0.65-0.07-0.97-0.07c-0.41,0-0.8,0.04-1.16,0.13c-0.36,0.08-0.68,0.22-0.96,0.41
		C40.23,2.8,40,3.06,39.84,3.36c-0.17,0.31-0.26,0.69-0.28,1.13h1.19c0.03-0.53,0.21-0.89,0.55-1.08c0.34-0.19,0.76-0.29,1.26-0.29
		c0.19,0,0.38,0.01,0.57,0.04c0.19,0.03,0.36,0.08,0.52,0.17c0.15,0.08,0.28,0.21,0.38,0.36c0.1,0.16,0.15,0.37,0.15,0.63
		c0,0.22-0.07,0.39-0.2,0.51c-0.13,0.12-0.31,0.2-0.53,0.27c-0.22,0.06-0.48,0.11-0.78,0.14c-0.29,0.03-0.6,0.08-0.93,0.15
		c-0.31,0.06-0.61,0.13-0.9,0.21c-0.29,0.08-0.56,0.21-0.78,0.37c-0.23,0.16-0.41,0.38-0.55,0.64c-0.14,0.26-0.21,0.6-0.21,1.01
		c0,0.36,0.06,0.67,0.19,0.93c0.13,0.26,0.3,0.47,0.51,0.62c0.22,0.16,0.47,0.27,0.76,0.35c0.29,0.08,0.6,0.11,0.93,0.11
		c0.5,0,0.97-0.09,1.41-0.26c0.43-0.17,0.81-0.46,1.14-0.85c0,0.39,0.09,0.67,0.27,0.85c0.18,0.17,0.43,0.26,0.74,0.26
		c0.36,0,0.65-0.06,0.85-0.18V8.53z M44.15,6.96c0,0.17-0.04,0.35-0.12,0.54c-0.08,0.19-0.22,0.37-0.39,0.53
		c-0.18,0.16-0.41,0.3-0.69,0.4c-0.28,0.11-0.62,0.16-1.01,0.16c-0.19,0-0.36-0.02-0.53-0.06c-0.17-0.04-0.31-0.1-0.44-0.18
		c-0.13-0.08-0.23-0.19-0.31-0.33c-0.08-0.14-0.12-0.3-0.12-0.5c0-0.3,0.07-0.53,0.2-0.7c0.14-0.17,0.31-0.31,0.53-0.4
		c0.22-0.09,0.46-0.16,0.73-0.2c0.27-0.04,0.54-0.08,0.81-0.11c0.27-0.03,0.52-0.07,0.76-0.13C43.8,5.94,44,5.85,44.15,5.74V6.96z
		 M50.97,3.29h-4.09V2.24h5.63v0.81l-4.42,5.38h4.62v1.05h-6.1V8.57L50.97,3.29z M57.91,4.37c-0.11-0.25-0.25-0.47-0.43-0.65
		c-0.18-0.18-0.4-0.33-0.64-0.43c-0.25-0.11-0.52-0.16-0.82-0.16c-0.31,0-0.59,0.05-0.83,0.16c-0.25,0.11-0.46,0.25-0.64,0.44
		c-0.18,0.19-0.32,0.4-0.42,0.65c-0.1,0.25-0.16,0.51-0.18,0.79h4.16C58.08,4.89,58.01,4.62,57.91,4.37 M58.19,9.02
		c-0.54,0.41-1.22,0.62-2.04,0.62c-0.58,0-1.08-0.09-1.51-0.28c-0.42-0.19-0.78-0.45-1.07-0.78c-0.29-0.34-0.51-0.74-0.65-1.2
		c-0.14-0.47-0.23-0.98-0.24-1.53c0-0.55,0.08-1.05,0.25-1.51c0.17-0.46,0.4-0.85,0.71-1.19c0.3-0.34,0.66-0.6,1.08-0.78
		c0.42-0.19,0.87-0.28,1.37-0.28c0.64,0,1.18,0.13,1.6,0.4c0.42,0.27,0.76,0.6,1.02,1.01c0.26,0.41,0.44,0.86,0.53,1.34
		c0.1,0.48,0.14,0.95,0.12,1.39h-5.42c-0.01,0.32,0.03,0.62,0.11,0.9c0.08,0.28,0.22,0.54,0.4,0.76c0.19,0.22,0.43,0.39,0.72,0.53
		c0.29,0.13,0.63,0.2,1.02,0.2c0.5,0,0.92-0.12,1.24-0.35c0.32-0.23,0.53-0.59,0.64-1.06h1.18C59.08,8,58.73,8.61,58.19,9.02
		 M63.12,2.24v1.05h-1.44v4.49c0,0.14,0.01,0.25,0.03,0.34c0.02,0.08,0.07,0.15,0.13,0.2C61.91,8.37,62,8.4,62.12,8.41
		c0.12,0.01,0.27,0.02,0.45,0.02h0.55v1.05h-0.91c-0.31,0-0.57-0.02-0.79-0.06c-0.22-0.04-0.4-0.12-0.53-0.23
		c-0.14-0.11-0.24-0.27-0.3-0.48c-0.06-0.21-0.1-0.48-0.1-0.81V3.29h-1.23V2.24h1.23V0.07h1.19v2.17H63.12z M68.44,4.37
		C68.33,4.12,68.18,3.9,68,3.72c-0.18-0.18-0.4-0.33-0.64-0.43c-0.25-0.11-0.52-0.16-0.82-0.16c-0.31,0-0.59,0.05-0.83,0.16
		c-0.25,0.11-0.46,0.25-0.64,0.44c-0.18,0.19-0.32,0.4-0.42,0.65c-0.1,0.25-0.16,0.51-0.18,0.79h4.16
		C68.61,4.89,68.54,4.62,68.44,4.37 M68.72,9.02c-0.54,0.41-1.22,0.62-2.04,0.62c-0.58,0-1.08-0.09-1.5-0.28s-0.78-0.45-1.07-0.78
		c-0.29-0.34-0.51-0.74-0.65-1.2c-0.14-0.47-0.23-0.98-0.24-1.53c0-0.55,0.08-1.05,0.25-1.51c0.17-0.46,0.4-0.85,0.71-1.19
		c0.3-0.34,0.66-0.6,1.08-0.78c0.41-0.19,0.87-0.28,1.36-0.28c0.64,0,1.18,0.13,1.6,0.4c0.42,0.27,0.77,0.6,1.02,1.01
		c0.26,0.41,0.43,0.86,0.53,1.34c0.1,0.48,0.14,0.95,0.12,1.39h-5.42c-0.01,0.32,0.03,0.62,0.11,0.9c0.08,0.28,0.22,0.54,0.41,0.76
		c0.19,0.22,0.43,0.39,0.72,0.53c0.29,0.13,0.63,0.2,1.02,0.2c0.51,0,0.92-0.12,1.24-0.35c0.32-0.23,0.53-0.59,0.64-1.06h1.18
		C69.61,8,69.26,8.61,68.72,9.02"/>
	<g>
		<path class="st0" d="M22.76,30.41c0-5.31-3.21-9.8-8.87-9.8c-5.43,0-8.63,4.73-8.63,9.8c0,5.14,3.09,9.92,8.63,9.92
			C19.61,40.33,22.76,35.78,22.76,30.41 M22.46,39.81h-0.12C20.25,42.9,16.98,45,13.07,45C4.73,45,0,38.06,0,30.24
			c0-7.47,4.96-14.29,12.84-14.29c4.14,0,7.35,2.1,9.51,5.37h0.12V0.07h5.25v43.99h-5.25V39.81z"/>
		<path class="st0" d="M37.09,16.76v15.11c0,4.38,1.11,8.23,6.01,8.23c4.9,0,6.02-3.85,6.02-8.23V16.76h5.01v15.7
			c0,7.47-3.29,12.54-11.03,12.54c-7.74,0-11.03-5.08-11.03-12.54v-15.7H37.09z"/>
		<polygon class="st0" points="77.05,16.76 69.17,33.8 61.35,16.76 55.46,16.76 69.17,45 82.94,16.76 		"/>
		<path class="st0" d="M104.73,30.41c0-5.31-3.21-9.8-8.87-9.8c-5.43,0-8.64,4.73-8.64,9.8c0,5.13,3.09,9.92,8.64,9.92
			C101.58,40.33,104.73,35.78,104.73,30.41 M109.69,44.07h-5.25v-4.26h-0.12c-2.1,3.09-5.31,5.19-9.28,5.19
			c-8.34,0-13.07-6.94-13.07-14.76c0-7.47,4.96-14.3,12.9-14.3c4.03,0,7.29,2.1,9.45,5.37h0.12v-4.55h5.25V44.07z"/>
	</g>
	<path class="st1" d="M163.12,44.05c4.35,0,7.88-3.53,7.88-7.88c0-4.35-3.53-7.88-7.88-7.88c-4.35,0-7.88,3.53-7.88,7.88
		C155.24,40.52,158.77,44.05,163.12,44.05"/>
	<path class="st1" d="M131.11,12.04h-1.23v7.48H131c2.63,0,5.26-0.41,5.26-3.68C136.26,12.39,133.92,12.04,131.11,12.04
		 M137.19,44.05l-7.01-14.14h-0.29v14.14h-15.66V0h19.34c9.99,0,18.35,4.21,18.35,15.31c0,6.72-2.63,9.41-8.53,11.45v0.35
		c0.88,0.64,1.81,1.29,2.69,2.63l9.58,14.31H137.19z"/>
</g>
</svg>
